<svg xmlns="http://www.w3.org/2000/svg" style="display: none;">
  <!-- 箭头向上 -->
  <symbol id="icon-arrow-up" viewBox="0 0 24 24">
    <polyline points="18 15 12 9 6 15"></polyline>
  </symbol>
  
  <!-- 数据库 -->
  <symbol id="icon-database" viewBox="0 0 24 24">
    <ellipse cx="12" cy="5" rx="9" ry="3"></ellipse>
    <path d="M21 12c0 1.66-4 3-9 3s-9-1.34-9-3"></path>
    <path d="M3 5v14c0 1.66 4 3 9 3s9-1.34 9-3V5"></path>
  </symbol>
  
  <!-- 搜索 -->
  <symbol id="icon-search" viewBox="0 0 24 24">
    <circle cx="11" cy="11" r="8"></circle>
    <path d="m21 21-4.35-4.35"></path>
  </symbol>
  
  <!-- 闪电 -->
  <symbol id="icon-zap" viewBox="0 0 24 24">
    <polygon points="13 2 3 14 12 14 11 22 21 10 12 10 13 2"></polygon>
  </symbol>
  
  <!-- 文件文本 -->
  <symbol id="icon-file-text" viewBox="0 0 24 24">
    <path d="M14 2H6a2 2 0 0 0-2 2v16a2 2 0 0 0 2 2h12a2 2 0 0 0 2-2V8z"></path>
    <polyline points="14 2 14 8 20 8"></polyline>
    <line x1="16" y1="13" x2="8" y2="13"></line>
    <line x1="16" y1="17" x2="8" y2="17"></line>
    <polyline points="10 9 9 9 8 9"></polyline>
  </symbol>
  
  <!-- 终端 -->
  <symbol id="icon-terminal" viewBox="0 0 24 24">
    <polyline points="4 17 10 11 4 5"></polyline>
    <line x1="12" y1="19" x2="20" y2="19"></line>
  </symbol>
  
  <!-- 设置 -->
  <symbol id="icon-settings" viewBox="0 0 24 24">
    <circle cx="12" cy="12" r="3"></circle>
    <path d="M12 1v6m0 6v6m6-12l-3 3m-6 6l-3 3m12 0l-3-3m-6-6l-3-3"></path>
  </symbol>
  
  <!-- 下载 -->
  <symbol id="icon-download" viewBox="0 0 24 24">
    <path d="M21 15v4a2 2 0 0 1-2 2H5a2 2 0 0 1-2-2v-4"></path>
    <polyline points="7 10 12 15 17 10"></polyline>
    <line x1="12" y1="15" x2="12" y2="3"></line>
  </symbol>
  
  <!-- 跨平台/全球 -->
  <symbol id="icon-globe" viewBox="0 0 24 24">
    <circle cx="12" cy="12" r="10"></circle>
    <line x1="2" y1="12" x2="22" y2="12"></line>
    <path d="M12 2a15.3 15.3 0 0 1 4 10 15.3 15.3 0 0 1-4 10 15.3 15.3 0 0 1-4-10 15.3 15.3 0 0 1 4-10z"></path>
  </symbol>
  
  <!-- 书籍 -->
  <symbol id="icon-book" viewBox="0 0 24 24">
    <path d="M4 19.5A2.5 2.5 0 0 1 6.5 17H20"></path>
    <path d="M6.5 2H20v20H6.5A2.5 2.5 0 0 1 4 19.5v-15A2.5 2.5 0 0 1 6.5 2z"></path>
  </symbol>
  
  <!-- GitHub -->
  <symbol id="icon-github" viewBox="0 0 24 24">
    <path d="M9 19c-5 1.5-5-2.5-7-3m14 6v-3.87a3.37 3.37 0 0 0-.94-2.61c3.14-.35 6.44-1.54 6.44-7A5.44 5.44 0 0 0 20 4.77 5.07 5.07 0 0 0 19.91 1S18.73.65 16 2.48a13.38 13.38 0 0 0-7 0C6.27.65 5.09 1 5.09 1A5.07 5.07 0 0 0 5 4.77a5.44 5.44 0 0 0-1.5 3.78c0 5.42 3.3 6.61 6.44 7A3.37 3.37 0 0 0 9 18.13V22"></path>
  </symbol>
  
  <!-- Windows -->
  <symbol id="icon-windows" viewBox="0 0 24 24">
    <path d="M3 5.5h8V12H3z"></path>
    <path d="M13 5.5h8V12h-8z"></path>
    <path d="M3 13h8v6.5H3z"></path>
    <path d="M13 13h8v6.5h-8z"></path>
  </symbol>
  
  <!-- Mac/Apple -->
  <symbol id="icon-apple" viewBox="0 0 24 24">
    <path d="M12 2.5a3 3 0 0 1 3 3c0 1-1 2-2 2a3 3 0 0 1-3-3c0-1 1-2 2-2z"></path>
    <path d="M18 9c-2 0-3 1-5 1s-3-1-5-1c-3 0-5 2-5 5s2 7 5 7c1.5 0 2-1 3-1s1.5 1 3 1c3 0 5-4 5-7s-2-5-5-5z"></path>
  </symbol>
  
  <!-- Linux -->
  <symbol id="icon-linux" viewBox="0 0 24 24">
    <circle cx="12" cy="10" r="3"></circle>
    <path d="M12 13c-3 0-5 2-5 4v4h10v-4c0-2-2-4-5-4z"></path>
    <path d="M8 7c0-2 1-4 4-4s4 2 4 4"></path>
  </symbol>
  
  <!-- 图层/堆栈 -->
  <symbol id="icon-layers" viewBox="0 0 24 24">
    <polygon points="12 2 2 7 12 12 22 7 12 2"></polygon>
    <polyline points="2 17 12 22 22 17"></polyline>
    <polyline points="2 12 12 17 22 12"></polyline>
  </symbol>
  
  <!-- 包/盒子 -->
  <symbol id="icon-package" viewBox="0 0 24 24">
    <line x1="16.5" y1="9.4" x2="7.5" y2="4.21"></line>
    <path d="M21 16V8a2 2 0 0 0-1-1.73l-7-4a2 2 0 0 0-2 0l-7 4A2 2 0 0 0 3 8v8a2 2 0 0 0 1 1.73l7 4a2 2 0 0 0 2 0l7-4A2 2 0 0 0 21 16z"></path>
    <polyline points="3.27 6.96 12 12.01 20.73 6.96"></polyline>
    <line x1="12" y1="22.08" x2="12" y2="12"></line>
  </symbol>
</svg>
